<svg xmlns="http://www.w3.org/2000/svg" viewBox="0 0 512 512">
  <defs><linearGradient id="g" x1="0" y1="0" x2="1" y2="1"><stop offset="0" stop-color="#2563eb"/><stop offset="1" stop-color="#7c3aed"/></linearGradient></defs>
  <rect width="512" height="512" rx="112" fill="url(#g)"/>
  <path d="M104 222c20-50 54-77 103-82h99c42 5 75 33 101 82l28 8v77h-38c-7 30-47 30-55 0H170c-8 30-48 30-55 0H77v-77l27-8Zm58-7h190c-20-31-42-45-71-48h-55c-27 3-48 17-64 48Z" fill="#fff"/>
  <text x="256" y="392" text-anchor="middle" fill="#fff" font-family="Arial,sans-serif" font-size="76" font-weight="800">Z&amp;G</text>
</svg>
